HIERARCHY
ROOT Hips
{
	OFFSET -0.001795 -0.223333 0.028219
	CHANNELS 6 Xposition Yposition Zposition Zrotation Yrotation Xrotation 
	JOINT LeftUpLeg
	{
		OFFSET 0.069520 -0.091406 -0.006815
		CHANNELS 3 Zrotation Yrotation Xrotation
		JOINT LeftLeg
		{
			OFFSET 0.034277 -0.375199 -0.004496
			CHANNELS 3 Zrotation Yrotation Xrotation
			JOINT LeftFoot
			{
				OFFSET -0.013596 -0.397961 -0.043693
				CHANNELS 3 Zrotation Yrotation Xrotation
				JOINT LeftToe
				{
					OFFSET 0.026358 -0.055791 0.119288
					CHANNELS 3 Zrotation Yrotation Xrotation
					End Site
					{
						OFFSET 0.000000 0.000000 0.000000
					}
				}
			}
		}
	}
	JOINT RightUpLeg
	{
		OFFSET -0.067670 -0.090522 -0.004320
		CHANNELS 3 Zrotation Yrotation Xrotation
		JOINT RightLeg
		{
			OFFSET -0.038290 -0.382569 -0.008850
			CHANNELS 3 Zrotation Yrotation Xrotation
			JOINT RightFoot
			{
				OFFSET 0.015774 -0.398415 -0.042312
				CHANNELS 3 Zrotation Yrotation Xrotation
				JOINT RightToe
				{
					OFFSET -0.025372 -0.048144 0.123348
					CHANNELS 3 Zrotation Yrotation Xrotation
					End Site
					{
						OFFSET 0.000000 0.000000 0.000000
					}
				}
			}
		}
	}
	JOINT Spine
	{
		OFFSET -0.002533 0.108963 -0.026696
		CHANNELS 3 Zrotation Yrotation Xrotation
		JOINT Spine1
		{
			OFFSET 0.005487 0.135180 0.001092
			CHANNELS 3 Zrotation Yrotation Xrotation
			JOINT Spine2
			{
				OFFSET 0.001457 0.052922 0.025425
				CHANNELS 3 Zrotation Yrotation Xrotation
				JOINT Neck
				{
					OFFSET -0.002778 0.213870 -0.042857
					CHANNELS 3 Zrotation Yrotation Xrotation
					JOINT Head
					{
						OFFSET 0.005152 0.064970 0.051349
						CHANNELS 3 Zrotation Yrotation Xrotation
						End Site
						{
							OFFSET 0.000000 0.000000 0.000000
						}
					}
				}
				JOINT LeftShoulder
				{
					OFFSET 0.078845 0.121749 -0.034090
					CHANNELS 3 Zrotation Yrotation Xrotation
					JOINT LeftArm
					{
						OFFSET 0.090977 0.030469 -0.008868
						CHANNELS 3 Zrotation Yrotation Xrotation
						JOINT LeftForeArm
						{
							OFFSET 0.259612 -0.012772 -0.027456
							CHANNELS 3 Zrotation Yrotation Xrotation
							JOINT LeftHand
							{
								OFFSET 0.249234 0.008986 -0.001171
								CHANNELS 3 Zrotation Yrotation Xrotation
								End Site
								{
									OFFSET 0.000000 0.000000 0.000000
								}
							}
						}
					}
				}
				JOINT RightShoulder
				{
					OFFSET -0.081759 0.118833 -0.038615
					CHANNELS 3 Zrotation Yrotation Xrotation
					JOINT RightArm
					{
						OFFSET -0.096012 0.032551 -0.009143
						CHANNELS 3 Zrotation Yrotation Xrotation
						JOINT RightForeArm
						{
							OFFSET -0.253742 -0.013329 -0.021401
							CHANNELS 3 Zrotation Yrotation Xrotation
							JOINT RightHand
							{
								OFFSET -0.255298 0.007772 -0.005559
								CHANNELS 3 Zrotation Yrotation Xrotation
								End Site
								{
									OFFSET 0.000000 0.000000 0.000000
								}
							}
						}
					}
				}
			}
		}
	}
}
MOTION
Frames: 7
Frame Time: 0.050000
0.000000 0.945449 0.000000 -4.035601 5.426284 4.181359 6.960547 -0.267525 -0.865792 -12.769786 0.538869 -7.639355 37.227383 42.841894 40.418348 0.000000 0.000000 0.000000 -0.980617 0.843635 -9.028905 3.049358 -0.346107 1.235374 1.289524 5.073536 -3.092069 0.000000 0.000000 0.000000 2.494829 -0.987855 13.191204 -7.929757 2.590203 -23.015830 -6.118510 0.649034 25.885043 6.959808 -2.406129 -21.888252 0.000000 0.000000 0.000000 -17.074229 -13.042778 4.886389 -41.834209 -18.920038 -0.473570 -0.993308 -23.749049 1.112065 0.000000 0.000000 0.000000 25.263821 -2.517521 -1.722524 56.848903 14.839952 -1.188432 17.921226 31.589086 6.955197 0.000000 0.000000 0.000000 
0.002344 0.944826 0.001572 -4.153978 3.478003 4.688199 6.597440 -0.231550 -0.805098 -12.419870 0.575425 -8.199005 39.108104 43.740605 42.260639 0.000000 0.000000 0.000000 -1.879020 0.884656 -10.002884 4.368126 -0.496142 1.925379 1.939161 7.033747 -3.114161 0.000000 0.000000 0.000000 2.537860 -0.997754 13.555594 -9.191822 2.865740 -22.864725 -6.815237 1.937127 24.225881 5.575228 -1.376863 -22.301790 0.000000 0.000000 0.000000 -16.673138 -11.619295 4.078709 -40.443547 -18.324353 -0.570286 -1.798445 -25.163593 1.334151 0.000000 0.000000 0.000000 25.547429 -3.243303 -2.237562 58.693277 13.275249 -1.689311 18.734913 32.465031 7.443185 0.000000 0.000000 0.000000 
0.004427 0.944432 0.002064 -4.553560 4.478382 4.581220 7.218251 -0.257113 -0.499552 -12.864344 0.498627 -8.677037 38.238149 43.458526 41.020538 0.000000 0.000000 0.000000 -1.526757 0.862041 -9.525847 4.170903 -0.481395 1.244321 1.783155 6.340683 -2.814194 0.000000 0.000000 0.000000 2.915930 -1.096297 13.866794 -9.392317 2.912110 -23.055962 -7.099750 1.001053 24.017753 4.882963 -1.134089 -21.174043 0.000000 0.000000 0.000000 -16.861250 -12.097639 4.380701 -39.795194 -18.375175 -0.532720 -0.259842 -24.774381 0.983756 0.000000 0.000000 0.000000 25.657936 -3.866593 -2.751534 59.334281 12.471869 -2.014800 17.744497 32.471399 7.142887 0.000000 0.000000 0.000000 
0.005852 0.944303 0.002028 -5.162824 3.786897 4.515129 7.082488 -0.247599 -0.788448 -11.724040 0.562229 -7.985979 39.301993 44.092278 41.597829 0.000000 0.000000 0.000000 -1.565401 0.903197 -9.983452 4.822176 -0.559036 1.639399 2.297131 7.447911 -2.277253 0.000000 0.000000 0.000000 2.795825 -1.141794 14.769923 -9.689993 2.928140 -23.717032 -8.103275 1.952850 24.059808 4.785151 -1.017492 -20.748894 0.000000 0.000000 0.000000 -15.740895 -12.554313 4.464284 -38.505515 -18.838750 -0.392758 0.003989 -25.039743 0.895184 0.000000 0.000000 0.000000 24.954372 -4.435806 -2.883969 60.257290 12.345215 -2.030391 19.222002 33.961882 8.085321 0.000000 0.000000 0.000000 
0.006684 0.944572 0.001091 -5.705552 4.270006 4.268534 7.863098 -0.281160 -1.069146 -12.081833 0.602915 -7.295863 39.040225 44.044401 41.105430 0.000000 0.000000 0.000000 -1.163812 0.943101 -10.182809 4.655261 -0.544645 1.777576 2.477797 7.465895 -1.594679 0.000000 0.000000 0.000000 1.902684 -1.079623 15.639667 -9.048503 2.787878 -23.695951 -8.476131 1.533360 23.782974 4.781999 -1.042992 -20.587725 0.000000 0.000000 0.000000 -15.077168 -12.867118 4.616101 -38.013103 -20.008837 -0.040039 1.084636 -24.377114 0.638557 0.000000 0.000000 0.000000 24.252623 -4.676681 -3.029243 61.200773 11.661119 -2.259339 19.718177 34.365330 8.350804 0.000000 0.000000 0.000000 
0.007323 0.945449 -0.000490 -6.255169 3.987374 4.225406 8.441121 -0.294248 -1.340342 -12.134756 0.644154 -6.934795 39.376040 44.151098 41.573445 0.000000 0.000000 0.000000 -0.578687 1.011683 -10.487775 4.371991 -0.503343 1.659711 2.861573 7.899217 -0.690619 0.000000 0.000000 0.000000 1.247160 -1.020308 16.358746 -9.060994 2.724480 -24.642836 -8.763014 1.536474 24.340222 4.877280 -1.136400 -20.589260 0.000000 0.000000 0.000000 -13.803425 -13.284279 4.854571 -37.148793 -20.695395 0.059026 1.557921 -24.510166 0.538332 0.000000 0.000000 0.000000 23.954245 -4.785443 -3.121049 61.423682 11.158838 -2.542433 21.376989 34.596699 8.959727 0.000000 0.000000 0.000000 
0.007984 0.946194 -0.002141 -6.754736 3.599128 4.166104 9.013607 -0.301644 -1.614076 -12.287324 0.698158 -6.503663 39.813622 44.302784 42.137511 0.000000 0.000000 0.000000 -0.046827 1.108614 -11.099168 4.318678 -0.492618 2.135244 3.089735 8.055579 -0.024130 0.000000 0.000000 0.000000 0.561792 -0.936906 16.958418 -8.538641 2.637772 -24.100832 -9.197580 1.069971 23.430812 4.825204 -1.245275 -20.035197 0.000000 0.000000 0.000000 -13.746968 -13.104558 4.868416 -36.473084 -21.150573 0.211260 2.471797 -23.773776 0.349513 0.000000 0.000000 0.000000 23.665434 -4.331443 -3.052905 61.714853 10.856865 -2.542245 21.526993 34.831293 8.959307 0.000000 0.000000 0.000000 
